<?xml version="1.0" encoding="UTF-8"?>
<svg id="Livello_1" xmlns="http://www.w3.org/2000/svg" version="1.1" viewBox="0 0 2997.77 2996.47">
  <!-- Generator: Adobe Illustrator 29.5.1, SVG Export Plug-In . SVG Version: 2.1.0 Build 141)  -->
  <defs>
    <style>
      .st0 {
        fill: #745a0d;
      }

      .st1 {
        fill: #621910;
      }

      .st2 {
        fill: #d7270f;
      }

      .st3 {
        fill: #524310;
      }

      .st4 {
        fill: #2c4469;
      }

      .st5 {
        fill: #31887f;
      }

      .st6 {
        fill: #a62113;
      }

      .st7 {
        fill: #f8290e;
      }

      .st8 {
        fill: #3d6092;
      }

      .st9 {
        fill: #b0840a;
      }

      .st10 {
        fill: #1d2935;
      }

      .st11 {
        fill: #dea507;
      }

      .st12 {
        fill: #1e3a33;
      }

      .st13 {
        fill: #6d1a0f;
      }
    </style>
  </defs>
  <polygon class="st8" points="1812 1925 1885.2 1898.2 2043.9 1862.9 2290.5 1858.4 2712 1937.2 2761.2 1953.1 2922.2 2026.1 2934 2036.2 2995.9 2130.6 2997.8 2158.5 2997.8 2158.5 2997.8 2158.5 2996 2145.2 2969.1 2216.3 2959.6 2231.1 2875.7 2306.5 2851.8 2322.6 2740.6 2379.2 2738.7 2379 2736.4 2377.2 2328.2 2228.2 2460.5 2168.7 2458.6 2061.7 2456.9 2050.9 2452 2047 2356.4 2037.2 2186.1 2078.1 2044.6 2135.2 2042.7 2134.9 2034.7 2131.3 1812 2057 1812 1925 1812 1925"/>
  <polygon class="st11" points="1 2356.8 0 2226.9 0 2226.9 95.91 2134.9 106.93 2126.4 214.46 2063.5 337.76 2017.7 343.55 2016.2 728.59 2155 508.61 2244 497.47 2250.4 452.16 2292.6 450.4 2301.3 458.72 2322.6 481.91 2342.8 556.57 2360.4 561.54 2360.6 674.77 2352.2 974.42 2236.4 1172 2321.1 1172.1 2484.3 1048.2 2531.1 782.66 2572.4 777.8 2571.4 530.29 2554.6 526.79 2553 322.81 2511.4 314.4 2518.3 312.38 2622.8 164.32 2560.4 51.19 2478.4 41.92 2466 3.34 2361 1 2356.8 1 2356.8"/>
  <polygon class="st1" points="1811 1925 1811 2057 1812 2062 1811.7 2952.9 1727 2995.2 1726.7 661.47 1756.5 514.89 1762.4 504.99 1808.1 469.75 1822.6 466.77 1886.4 481.82 1894.8 484.83 1851.9 503.44 1840.1 513.38 1817.3 549.54 1813 564.42 1811 1925 1811 1925"/>
  <polygon class="st5" points="728.58 2155 343.49 2016.2 977.61 1778.6 1172 1843 1172 1982.4 730.51 2155.3 728.58 2155 728.58 2155"/>
  <polygon class="st6" points="2746.2 889 2654.4 916.93 2591.5 700.79 2590.6 690.94 2598.4 690.09 2684.5 666.99 2745.5 884.16 2746.2 889 2746.2 889"/>
  <polygon class="st2" points="2684.5 666.99 2598.4 690.09 2590.6 690.94 2494.9 529.48 2498.8 517.98 2582.9 484.79 2682.3 661.56 2684.5 666.99 2684.5 666.99"/>
  <polygon class="st8" points="1172 1843 977.61 1778.6 1172 1704.8 1172 1843 1172 1843"/>
  <polygon class="st13" points="2340.8 1768 2342.7 1766.9 2340.8 1768 2340.8 1768"/>
  <polygon class="st3" points="783 2572.4 1048.9 2531.1 1173 2484.3 1172.9 2602.6 1037.6 2642.8 783 2679.3 783 2572.4 783 2572.4"/>
  <polygon class="st12" points="1173 2072.2 731 2256.9 731.11 2155.4 1173 1982.4 1173 2072.2 1173 2072.2"/>
  <polygon class="st5" points="974.47 2236.4 1172 2160.6 1172.1 2321.1 974.47 2236.4 974.47 2236.4"/>
  <polygon class="st0" points="783 2572.4 782.75 2679.2 531 2668.8 530.8 2554.7 778.15 2571.4 783 2572.4 783 2572.4"/>
  <polygon class="st9" points="531 2554.7 531.2 2668.8 319.58 2625 313.06 2622.8 315.08 2518.3 323.49 2511.4 527.5 2553 531 2554.7 531 2554.7"/>
  <polygon class="st12" points="2739.1 2379 2741 2379.2 2740.9 2484.8 2147 2784.1 2146.7 2678.9 2739.1 2379 2739.1 2379"/>
  <polygon class="st3" points="2147 2678.8 2147.3 2784.1 1811 2953.1 1811.2 2844.7 1822.3 2841.2 2144.7 2678.7 2147 2678.8"/>
  <polygon class="st10" points="2741 2484.6 2741.1 2379.1 2852.1 2322.5 2876 2306.5 2959.7 2231.2 2969.2 2216.4 2996 2130.9 2996.8 2234 2986.5 2284.9 2969.4 2325.2 2959.2 2339.6 2861 2424.2 2743.8 2483.8 2741 2484.6 2741 2484.6"/>
  <polygon class="st5" points="2146.3 2678.9 2144 2678.7 1811 2539.8 1811.1 2451.2 2328 2228.2 2736.2 2377.2 2738.5 2379 2146.3 2678.9 2146.3 2678.9"/>
  <polygon class="st10" points="2360.8 2140.5 2179.8 2187 2045 2243.4 2044.9 2135.2 2186.4 2078.1 2356.6 2037.2 2358.7 2049.9 2360.8 2140.5 2360.8 2140.5"/>
  <polygon class="st12" points="2044 2135.4 2044.1 2243.4 1811 2341.2 1810.9 2226.8 1821.4 2224.6 2042 2135.1 2044 2135.4 2044 2135.4"/>
  <polygon class="st5" points="2042.6 2134.9 1821.5 2224.6 1811 2226.8 1810.9 2062 1811.5 2057 2034.6 2131.3 2042.6 2134.9 2042.6 2134.9"/>
  <polygon class="st4" points="2360.6 2140.5 2358.4 2049.9 2356.4 2037.2 2452 2047 2456.9 2050.9 2458.6 2061.7 2460.4 2152.3 2360.6 2140.5 2360.6 2140.5"/>
  <polygon class="st3" points="731 2155.3 730.89 2256.8 568.99 2326.8 558.83 2340.5 557.02 2360.4 482.36 2342.9 459.16 2322.7 450.84 2301.3 452.61 2292.6 497.92 2250.4 509.06 2244 729.07 2155 731 2155.3 731 2155.3"/>
  <polygon class="st11" points="1812 2539.8 2144.2 2678.7 1822 2841.2 1811 2844.7 1812 2539.8 1812 2539.8"/>
  <polygon class="st13" points="2321.1 2978.85 2402.3 2946.55 2411.6 2940.85 2508.1 2850.95 2528.1 2817.95 2599 2662.65 2644.4 2414.75 2654.4 916.93 2746.2 889 2738.5 2375.05 2683.4 2647.75 2678.5 2661.85 2596.9 2820.75 2587.6 2832.15 2450.6 2937.55 2434.8 2945.75 2328.8 2977.65 2321.1 2978.85 2321.1 2978.85"/>
  <polygon class="st7" points="1173 1704.8 1173 42.09 1185.5 24.6 1259.6 .63 1272.2 0 2104.1 191.23 2284.9 255.02 2298.3 261.51 2442.4 358.76 2582.9 484.79 2498.8 517.98 2494.9 529.48 2590.6 690.94 2591.5 700.79 2654.4 916.93 2644.9 2422.4 2599.5 2670.3 2528.6 2825.6 2508.6 2858.6 2412.1 2948.5 2402.8 2954.2 2321.6 2986.5 2321.7 2986.3 2319.8 2987.4 2276.5 2996.9 2088.3 2996.8 2070.1 2992.7 1952.8 2937.3 1943 2921.6 1964.3 633.07 1958.6 609.29 1900.9 493.07 1894.7 484.55 1886.3 481.53 1822.3 466.42 1807.7 469.42 1761.8 504.79 1755.9 514.72 1726 661.88 1726.4 2996.5 1724.6 2996.5 1716.1 2992.5 1172 2780.8 1172 2780.8 1173 1704.8 1173 1704.8"/>
</svg>